<?xml version="1.0" encoding="UTF-8"?>
<svg id="Layer_1" data-name="Layer 1" xmlns="http://www.w3.org/2000/svg" viewBox="0 0 174.7 351.27">
  <path d="M142.62,.74c5.95,34.63,1.14,76.03-11.47,98.62-7.48,13.39-15.85,20.68-41.67,36.28-40.31,24.35-63.11,44.27-76.61,66.94C.04,224.1-2.58,241.25,2.28,271.8c3.93,24.74,18.13,54.2,35.77,74.24,4.01,4.55,4.11,4.48,2.73-2.09-3.31-15.66-.32-36.26,7.13-49.23,10.1-17.55,21.3-28.36,49.59-47.8,33.37-22.94,53.43-43.68,64.36-66.53,20.53-42.93,16.39-100.17-11.97-165.52-5.15-11.87-7.74-16.91-7.26-14.13" fill="#149494" fill-rule="evenodd"/>
  <path d="M134.47,234.85c-66.69,46.38-83.39,66.46-79.51,95.61,2.69,20.23,8.99,24.01,30.96,18.54,31.11-7.74,40.79-26.06,56.72-107.36,1.25-6.39,2.42-12.12,2.59-12.72,.52-1.81-.28-1.37-10.76,5.92" fill="#149494" fill-rule="evenodd"/>
</svg>